<mxfile host="Electron" modified="2023-10-17T17:31:18.155Z" agent="Mozilla/5.0 (Windows NT 10.0; Win64; x64) AppleWebKit/537.36 (KHTML, like Gecko) draw.io/21.2.8 Chrome/112.0.5615.165 Electron/24.2.0 Safari/537.36" etag="-GSIOe6rbmZinRCiyLZb" version="21.2.8" type="device">
  <diagram name="1 oldal" id="sUrUXdWRJaMq6TPpOxa8">
    <mxGraphModel dx="2183" dy="2049" grid="1" gridSize="10" guides="1" tooltips="1" connect="1" arrows="1" fold="1" page="1" pageScale="1" pageWidth="827" pageHeight="1169" math="0" shadow="0">
      <root>
        <mxCell id="0" />
        <mxCell id="1" parent="0" />
        <mxCell id="YLxW0C4IHcAFHFS-hIZx-148" value="" style="rounded=0;whiteSpace=wrap;html=1;fillColor=#b1ddf0;strokeColor=#10739e;" vertex="1" parent="1">
          <mxGeometry x="1280" y="310" width="500" height="430" as="geometry" />
        </mxCell>
        <mxCell id="YLxW0C4IHcAFHFS-hIZx-21" style="edgeStyle=orthogonalEdgeStyle;rounded=0;orthogonalLoop=1;jettySize=auto;html=1;exitX=1;exitY=0.25;exitDx=0;exitDy=0;entryX=0.07;entryY=0.4;entryDx=0;entryDy=0;entryPerimeter=0;" edge="1" parent="1" source="YLxW0C4IHcAFHFS-hIZx-8" target="YLxW0C4IHcAFHFS-hIZx-20">
          <mxGeometry relative="1" as="geometry" />
        </mxCell>
        <mxCell id="YLxW0C4IHcAFHFS-hIZx-8" value="" style="rounded=0;whiteSpace=wrap;html=1;fillColor=none;" vertex="1" parent="1">
          <mxGeometry x="60" y="40" width="540" height="710" as="geometry" />
        </mxCell>
        <mxCell id="YLxW0C4IHcAFHFS-hIZx-5" value="" style="group" vertex="1" connectable="0" parent="1">
          <mxGeometry x="120" y="90" width="420" height="280" as="geometry" />
        </mxCell>
        <mxCell id="YLxW0C4IHcAFHFS-hIZx-1" value="" style="rounded=0;whiteSpace=wrap;html=1;" vertex="1" parent="YLxW0C4IHcAFHFS-hIZx-5">
          <mxGeometry width="420" height="280" as="geometry" />
        </mxCell>
        <mxCell id="YLxW0C4IHcAFHFS-hIZx-2" value="React" style="text;html=1;strokeColor=none;fillColor=none;align=center;verticalAlign=middle;whiteSpace=wrap;rounded=0;" vertex="1" parent="YLxW0C4IHcAFHFS-hIZx-5">
          <mxGeometry x="10" y="12.173913043478262" width="60" height="36.52173913043478" as="geometry" />
        </mxCell>
        <mxCell id="YLxW0C4IHcAFHFS-hIZx-13" value="Tasks/Ticket" style="rounded=1;whiteSpace=wrap;html=1;fillColor=#1ba1e2;strokeColor=#006EAF;fontColor=#ffffff;" vertex="1" parent="YLxW0C4IHcAFHFS-hIZx-5">
          <mxGeometry x="260" y="100" width="120" height="60" as="geometry" />
        </mxCell>
        <mxCell id="YLxW0C4IHcAFHFS-hIZx-14" value="Basic dictionary handler: Priority, Category, etc..." style="rounded=1;whiteSpace=wrap;html=1;fillColor=#1ba1e2;strokeColor=#006EAF;fontColor=#ffffff;" vertex="1" parent="YLxW0C4IHcAFHFS-hIZx-5">
          <mxGeometry x="100" y="190" width="120" height="60" as="geometry" />
        </mxCell>
        <mxCell id="YLxW0C4IHcAFHFS-hIZx-6" value="" style="group" vertex="1" connectable="0" parent="1">
          <mxGeometry x="120" y="411" width="420" height="170" as="geometry" />
        </mxCell>
        <mxCell id="YLxW0C4IHcAFHFS-hIZx-3" value="" style="rounded=0;whiteSpace=wrap;html=1;" vertex="1" parent="YLxW0C4IHcAFHFS-hIZx-6">
          <mxGeometry width="420" height="170" as="geometry" />
        </mxCell>
        <mxCell id="YLxW0C4IHcAFHFS-hIZx-4" value=".NET Core 7 WebAPI" style="text;html=1;strokeColor=none;fillColor=none;align=center;verticalAlign=middle;whiteSpace=wrap;rounded=0;" vertex="1" parent="YLxW0C4IHcAFHFS-hIZx-6">
          <mxGeometry x="10" y="11.333333333333332" width="80" height="34" as="geometry" />
        </mxCell>
        <mxCell id="YLxW0C4IHcAFHFS-hIZx-18" style="edgeStyle=orthogonalEdgeStyle;rounded=0;orthogonalLoop=1;jettySize=auto;html=1;exitX=0.5;exitY=1;exitDx=0;exitDy=0;entryX=0.5;entryY=0;entryDx=0;entryDy=0;" edge="1" parent="YLxW0C4IHcAFHFS-hIZx-6" source="YLxW0C4IHcAFHFS-hIZx-15" target="YLxW0C4IHcAFHFS-hIZx-16">
          <mxGeometry relative="1" as="geometry" />
        </mxCell>
        <mxCell id="YLxW0C4IHcAFHFS-hIZx-15" value="API Layer" style="rounded=0;whiteSpace=wrap;html=1;" vertex="1" parent="YLxW0C4IHcAFHFS-hIZx-6">
          <mxGeometry x="100" y="15.329999999999998" width="120" height="30" as="geometry" />
        </mxCell>
        <mxCell id="YLxW0C4IHcAFHFS-hIZx-17" value="DAL" style="rounded=0;whiteSpace=wrap;html=1;" vertex="1" parent="YLxW0C4IHcAFHFS-hIZx-6">
          <mxGeometry x="100" y="130" width="120" height="30" as="geometry" />
        </mxCell>
        <mxCell id="YLxW0C4IHcAFHFS-hIZx-19" style="edgeStyle=orthogonalEdgeStyle;rounded=0;orthogonalLoop=1;jettySize=auto;html=1;exitX=0.5;exitY=1;exitDx=0;exitDy=0;entryX=0.5;entryY=0;entryDx=0;entryDy=0;" edge="1" parent="YLxW0C4IHcAFHFS-hIZx-6" source="YLxW0C4IHcAFHFS-hIZx-16" target="YLxW0C4IHcAFHFS-hIZx-17">
          <mxGeometry relative="1" as="geometry" />
        </mxCell>
        <mxCell id="YLxW0C4IHcAFHFS-hIZx-16" value="Service/BL Layer" style="rounded=0;whiteSpace=wrap;html=1;" vertex="1" parent="YLxW0C4IHcAFHFS-hIZx-6">
          <mxGeometry x="100" y="70" width="120" height="30" as="geometry" />
        </mxCell>
        <mxCell id="YLxW0C4IHcAFHFS-hIZx-233" style="edgeStyle=orthogonalEdgeStyle;rounded=0;orthogonalLoop=1;jettySize=auto;html=1;exitX=1;exitY=0.5;exitDx=0;exitDy=0;exitPerimeter=0;entryX=0;entryY=0.5;entryDx=0;entryDy=0;" edge="1" parent="1" source="YLxW0C4IHcAFHFS-hIZx-7" target="YLxW0C4IHcAFHFS-hIZx-24">
          <mxGeometry relative="1" as="geometry" />
        </mxCell>
        <mxCell id="YLxW0C4IHcAFHFS-hIZx-7" value="DB: Postgresql" style="shape=cylinder3;whiteSpace=wrap;html=1;boundedLbl=1;backgroundOutline=1;size=15;" vertex="1" parent="1">
          <mxGeometry x="227.5" y="608.6" width="205" height="120" as="geometry" />
        </mxCell>
        <mxCell id="YLxW0C4IHcAFHFS-hIZx-9" value="&lt;b&gt;Docker container&lt;/b&gt;" style="text;html=1;strokeColor=none;fillColor=none;align=left;verticalAlign=top;whiteSpace=wrap;rounded=0;" vertex="1" parent="1">
          <mxGeometry x="70" y="40" width="180" height="30" as="geometry" />
        </mxCell>
        <mxCell id="YLxW0C4IHcAFHFS-hIZx-10" value="Dashboard" style="rounded=1;whiteSpace=wrap;html=1;fillColor=#1ba1e2;strokeColor=#006EAF;fontColor=#ffffff;" vertex="1" parent="1">
          <mxGeometry x="220" y="110" width="120" height="60" as="geometry" />
        </mxCell>
        <mxCell id="YLxW0C4IHcAFHFS-hIZx-11" value="Project register" style="rounded=1;whiteSpace=wrap;html=1;fillColor=#1ba1e2;strokeColor=#006EAF;fontColor=#ffffff;" vertex="1" parent="1">
          <mxGeometry x="220" y="190" width="120" height="60" as="geometry" />
        </mxCell>
        <mxCell id="YLxW0C4IHcAFHFS-hIZx-12" value="Kanban board" style="rounded=1;whiteSpace=wrap;html=1;fillColor=#1ba1e2;strokeColor=#006EAF;fontColor=#ffffff;" vertex="1" parent="1">
          <mxGeometry x="380" y="110" width="120" height="60" as="geometry" />
        </mxCell>
        <mxCell id="YLxW0C4IHcAFHFS-hIZx-20" value="Heroku / Docker compose" style="ellipse;shape=cloud;whiteSpace=wrap;html=1;" vertex="1" parent="1">
          <mxGeometry x="760" y="-10" width="270" height="150" as="geometry" />
        </mxCell>
        <mxCell id="YLxW0C4IHcAFHFS-hIZx-22" value="Deployment" style="text;html=1;align=center;verticalAlign=middle;whiteSpace=wrap;rounded=0;fillColor=#6a00ff;fontColor=#ffffff;strokeColor=#3700CC;" vertex="1" parent="1">
          <mxGeometry x="670" y="10" width="80" height="30" as="geometry" />
        </mxCell>
        <mxCell id="YLxW0C4IHcAFHFS-hIZx-23" value="DB Viz" style="text;html=1;strokeColor=none;fillColor=none;align=center;verticalAlign=middle;whiteSpace=wrap;rounded=0;" vertex="1" parent="1">
          <mxGeometry x="740" y="235.7" width="60" height="29.4" as="geometry" />
        </mxCell>
        <mxCell id="YLxW0C4IHcAFHFS-hIZx-24" value="" style="rounded=0;whiteSpace=wrap;html=1;" vertex="1" parent="1">
          <mxGeometry x="720" y="221" width="1480" height="839" as="geometry" />
        </mxCell>
        <mxCell id="YLxW0C4IHcAFHFS-hIZx-26" value="Project" style="shape=table;startSize=30;container=1;collapsible=1;childLayout=tableLayout;fixedRows=1;rowLines=0;fontStyle=1;align=center;resizeLast=1;html=1;" vertex="1" parent="1">
          <mxGeometry x="770" y="338.6" width="180" height="270" as="geometry">
            <mxRectangle x="770" y="338.6" width="80" height="30" as="alternateBounds" />
          </mxGeometry>
        </mxCell>
        <mxCell id="YLxW0C4IHcAFHFS-hIZx-27" value="" style="shape=tableRow;horizontal=0;startSize=0;swimlaneHead=0;swimlaneBody=0;fillColor=none;collapsible=0;dropTarget=0;points=[[0,0.5],[1,0.5]];portConstraint=eastwest;top=0;left=0;right=0;bottom=1;" vertex="1" parent="YLxW0C4IHcAFHFS-hIZx-26">
          <mxGeometry y="30" width="180" height="30" as="geometry" />
        </mxCell>
        <mxCell id="YLxW0C4IHcAFHFS-hIZx-28" value="PK" style="shape=partialRectangle;connectable=0;fillColor=none;top=0;left=0;bottom=0;right=0;fontStyle=1;overflow=hidden;whiteSpace=wrap;html=1;" vertex="1" parent="YLxW0C4IHcAFHFS-hIZx-27">
          <mxGeometry width="30" height="30" as="geometry">
            <mxRectangle width="30" height="30" as="alternateBounds" />
          </mxGeometry>
        </mxCell>
        <mxCell id="YLxW0C4IHcAFHFS-hIZx-29" value="Id" style="shape=partialRectangle;connectable=0;fillColor=none;top=0;left=0;bottom=0;right=0;align=left;spacingLeft=6;fontStyle=5;overflow=hidden;whiteSpace=wrap;html=1;" vertex="1" parent="YLxW0C4IHcAFHFS-hIZx-27">
          <mxGeometry x="30" width="150" height="30" as="geometry">
            <mxRectangle width="150" height="30" as="alternateBounds" />
          </mxGeometry>
        </mxCell>
        <mxCell id="YLxW0C4IHcAFHFS-hIZx-30" value="" style="shape=tableRow;horizontal=0;startSize=0;swimlaneHead=0;swimlaneBody=0;fillColor=none;collapsible=0;dropTarget=0;points=[[0,0.5],[1,0.5]];portConstraint=eastwest;top=0;left=0;right=0;bottom=0;" vertex="1" parent="YLxW0C4IHcAFHFS-hIZx-26">
          <mxGeometry y="60" width="180" height="30" as="geometry" />
        </mxCell>
        <mxCell id="YLxW0C4IHcAFHFS-hIZx-31" value="" style="shape=partialRectangle;connectable=0;fillColor=none;top=0;left=0;bottom=0;right=0;editable=1;overflow=hidden;whiteSpace=wrap;html=1;" vertex="1" parent="YLxW0C4IHcAFHFS-hIZx-30">
          <mxGeometry width="30" height="30" as="geometry">
            <mxRectangle width="30" height="30" as="alternateBounds" />
          </mxGeometry>
        </mxCell>
        <mxCell id="YLxW0C4IHcAFHFS-hIZx-32" value="Name: &lt;i&gt;String&lt;/i&gt;" style="shape=partialRectangle;connectable=0;fillColor=none;top=0;left=0;bottom=0;right=0;align=left;spacingLeft=6;overflow=hidden;whiteSpace=wrap;html=1;" vertex="1" parent="YLxW0C4IHcAFHFS-hIZx-30">
          <mxGeometry x="30" width="150" height="30" as="geometry">
            <mxRectangle width="150" height="30" as="alternateBounds" />
          </mxGeometry>
        </mxCell>
        <mxCell id="YLxW0C4IHcAFHFS-hIZx-33" value="" style="shape=tableRow;horizontal=0;startSize=0;swimlaneHead=0;swimlaneBody=0;fillColor=none;collapsible=0;dropTarget=0;points=[[0,0.5],[1,0.5]];portConstraint=eastwest;top=0;left=0;right=0;bottom=0;" vertex="1" parent="YLxW0C4IHcAFHFS-hIZx-26">
          <mxGeometry y="90" width="180" height="30" as="geometry" />
        </mxCell>
        <mxCell id="YLxW0C4IHcAFHFS-hIZx-34" value="" style="shape=partialRectangle;connectable=0;fillColor=none;top=0;left=0;bottom=0;right=0;editable=1;overflow=hidden;whiteSpace=wrap;html=1;" vertex="1" parent="YLxW0C4IHcAFHFS-hIZx-33">
          <mxGeometry width="30" height="30" as="geometry">
            <mxRectangle width="30" height="30" as="alternateBounds" />
          </mxGeometry>
        </mxCell>
        <mxCell id="YLxW0C4IHcAFHFS-hIZx-35" value="Code:&lt;i&gt;String&lt;/i&gt;" style="shape=partialRectangle;connectable=0;fillColor=none;top=0;left=0;bottom=0;right=0;align=left;spacingLeft=6;overflow=hidden;whiteSpace=wrap;html=1;" vertex="1" parent="YLxW0C4IHcAFHFS-hIZx-33">
          <mxGeometry x="30" width="150" height="30" as="geometry">
            <mxRectangle width="150" height="30" as="alternateBounds" />
          </mxGeometry>
        </mxCell>
        <mxCell id="YLxW0C4IHcAFHFS-hIZx-36" value="" style="shape=tableRow;horizontal=0;startSize=0;swimlaneHead=0;swimlaneBody=0;fillColor=none;collapsible=0;dropTarget=0;points=[[0,0.5],[1,0.5]];portConstraint=eastwest;top=0;left=0;right=0;bottom=0;" vertex="1" parent="YLxW0C4IHcAFHFS-hIZx-26">
          <mxGeometry y="120" width="180" height="30" as="geometry" />
        </mxCell>
        <mxCell id="YLxW0C4IHcAFHFS-hIZx-37" value="" style="shape=partialRectangle;connectable=0;fillColor=none;top=0;left=0;bottom=0;right=0;editable=1;overflow=hidden;whiteSpace=wrap;html=1;" vertex="1" parent="YLxW0C4IHcAFHFS-hIZx-36">
          <mxGeometry width="30" height="30" as="geometry">
            <mxRectangle width="30" height="30" as="alternateBounds" />
          </mxGeometry>
        </mxCell>
        <mxCell id="YLxW0C4IHcAFHFS-hIZx-38" value="Active: &lt;i&gt;Boolean&lt;/i&gt;" style="shape=partialRectangle;connectable=0;fillColor=none;top=0;left=0;bottom=0;right=0;align=left;spacingLeft=6;overflow=hidden;whiteSpace=wrap;html=1;" vertex="1" parent="YLxW0C4IHcAFHFS-hIZx-36">
          <mxGeometry x="30" width="150" height="30" as="geometry">
            <mxRectangle width="150" height="30" as="alternateBounds" />
          </mxGeometry>
        </mxCell>
        <mxCell id="YLxW0C4IHcAFHFS-hIZx-39" style="shape=tableRow;horizontal=0;startSize=0;swimlaneHead=0;swimlaneBody=0;fillColor=none;collapsible=0;dropTarget=0;points=[[0,0.5],[1,0.5]];portConstraint=eastwest;top=0;left=0;right=0;bottom=0;" vertex="1" parent="YLxW0C4IHcAFHFS-hIZx-26">
          <mxGeometry y="150" width="180" height="30" as="geometry" />
        </mxCell>
        <mxCell id="YLxW0C4IHcAFHFS-hIZx-40" style="shape=partialRectangle;connectable=0;fillColor=none;top=0;left=0;bottom=0;right=0;editable=1;overflow=hidden;whiteSpace=wrap;html=1;" vertex="1" parent="YLxW0C4IHcAFHFS-hIZx-39">
          <mxGeometry width="30" height="30" as="geometry">
            <mxRectangle width="30" height="30" as="alternateBounds" />
          </mxGeometry>
        </mxCell>
        <mxCell id="YLxW0C4IHcAFHFS-hIZx-41" value="Created: &lt;i&gt;Date&lt;/i&gt;" style="shape=partialRectangle;connectable=0;fillColor=none;top=0;left=0;bottom=0;right=0;align=left;spacingLeft=6;overflow=hidden;whiteSpace=wrap;html=1;" vertex="1" parent="YLxW0C4IHcAFHFS-hIZx-39">
          <mxGeometry x="30" width="150" height="30" as="geometry">
            <mxRectangle width="150" height="30" as="alternateBounds" />
          </mxGeometry>
        </mxCell>
        <mxCell id="YLxW0C4IHcAFHFS-hIZx-42" style="shape=tableRow;horizontal=0;startSize=0;swimlaneHead=0;swimlaneBody=0;fillColor=none;collapsible=0;dropTarget=0;points=[[0,0.5],[1,0.5]];portConstraint=eastwest;top=0;left=0;right=0;bottom=0;" vertex="1" parent="YLxW0C4IHcAFHFS-hIZx-26">
          <mxGeometry y="180" width="180" height="30" as="geometry" />
        </mxCell>
        <mxCell id="YLxW0C4IHcAFHFS-hIZx-43" value="&lt;b&gt;FK&lt;/b&gt;" style="shape=partialRectangle;connectable=0;fillColor=none;top=0;left=0;bottom=0;right=0;editable=1;overflow=hidden;whiteSpace=wrap;html=1;" vertex="1" parent="YLxW0C4IHcAFHFS-hIZx-42">
          <mxGeometry width="30" height="30" as="geometry">
            <mxRectangle width="30" height="30" as="alternateBounds" />
          </mxGeometry>
        </mxCell>
        <mxCell id="YLxW0C4IHcAFHFS-hIZx-44" value="CreatorUserId: &lt;i&gt;Long&lt;/i&gt;" style="shape=partialRectangle;connectable=0;fillColor=none;top=0;left=0;bottom=0;right=0;align=left;spacingLeft=6;overflow=hidden;whiteSpace=wrap;html=1;" vertex="1" parent="YLxW0C4IHcAFHFS-hIZx-42">
          <mxGeometry x="30" width="150" height="30" as="geometry">
            <mxRectangle width="150" height="30" as="alternateBounds" />
          </mxGeometry>
        </mxCell>
        <mxCell id="YLxW0C4IHcAFHFS-hIZx-45" style="shape=tableRow;horizontal=0;startSize=0;swimlaneHead=0;swimlaneBody=0;fillColor=none;collapsible=0;dropTarget=0;points=[[0,0.5],[1,0.5]];portConstraint=eastwest;top=0;left=0;right=0;bottom=0;" vertex="1" parent="YLxW0C4IHcAFHFS-hIZx-26">
          <mxGeometry y="210" width="180" height="30" as="geometry" />
        </mxCell>
        <mxCell id="YLxW0C4IHcAFHFS-hIZx-46" style="shape=partialRectangle;connectable=0;fillColor=none;top=0;left=0;bottom=0;right=0;editable=1;overflow=hidden;whiteSpace=wrap;html=1;" vertex="1" parent="YLxW0C4IHcAFHFS-hIZx-45">
          <mxGeometry width="30" height="30" as="geometry">
            <mxRectangle width="30" height="30" as="alternateBounds" />
          </mxGeometry>
        </mxCell>
        <mxCell id="YLxW0C4IHcAFHFS-hIZx-47" value="Start: &lt;i&gt;Date&lt;/i&gt;&lt;span style=&quot;white-space: pre;&quot;&gt;	&lt;/span&gt;" style="shape=partialRectangle;connectable=0;fillColor=none;top=0;left=0;bottom=0;right=0;align=left;spacingLeft=6;overflow=hidden;whiteSpace=wrap;html=1;" vertex="1" parent="YLxW0C4IHcAFHFS-hIZx-45">
          <mxGeometry x="30" width="150" height="30" as="geometry">
            <mxRectangle width="150" height="30" as="alternateBounds" />
          </mxGeometry>
        </mxCell>
        <mxCell id="YLxW0C4IHcAFHFS-hIZx-48" style="shape=tableRow;horizontal=0;startSize=0;swimlaneHead=0;swimlaneBody=0;fillColor=none;collapsible=0;dropTarget=0;points=[[0,0.5],[1,0.5]];portConstraint=eastwest;top=0;left=0;right=0;bottom=0;" vertex="1" parent="YLxW0C4IHcAFHFS-hIZx-26">
          <mxGeometry y="240" width="180" height="30" as="geometry" />
        </mxCell>
        <mxCell id="YLxW0C4IHcAFHFS-hIZx-49" style="shape=partialRectangle;connectable=0;fillColor=none;top=0;left=0;bottom=0;right=0;editable=1;overflow=hidden;whiteSpace=wrap;html=1;" vertex="1" parent="YLxW0C4IHcAFHFS-hIZx-48">
          <mxGeometry width="30" height="30" as="geometry">
            <mxRectangle width="30" height="30" as="alternateBounds" />
          </mxGeometry>
        </mxCell>
        <mxCell id="YLxW0C4IHcAFHFS-hIZx-50" value="End: &lt;i&gt;Date&lt;/i&gt;" style="shape=partialRectangle;connectable=0;fillColor=none;top=0;left=0;bottom=0;right=0;align=left;spacingLeft=6;overflow=hidden;whiteSpace=wrap;html=1;" vertex="1" parent="YLxW0C4IHcAFHFS-hIZx-48">
          <mxGeometry x="30" width="150" height="30" as="geometry">
            <mxRectangle width="150" height="30" as="alternateBounds" />
          </mxGeometry>
        </mxCell>
        <mxCell id="YLxW0C4IHcAFHFS-hIZx-60" value="User: AspNetUser" style="shape=table;startSize=30;container=1;collapsible=1;childLayout=tableLayout;fixedRows=1;rowLines=0;fontStyle=1;align=center;resizeLast=1;html=1;" vertex="1" parent="1">
          <mxGeometry x="1061" y="338.6" width="180" height="150" as="geometry" />
        </mxCell>
        <mxCell id="YLxW0C4IHcAFHFS-hIZx-61" value="" style="shape=tableRow;horizontal=0;startSize=0;swimlaneHead=0;swimlaneBody=0;fillColor=none;collapsible=0;dropTarget=0;points=[[0,0.5],[1,0.5]];portConstraint=eastwest;top=0;left=0;right=0;bottom=1;" vertex="1" parent="YLxW0C4IHcAFHFS-hIZx-60">
          <mxGeometry y="30" width="180" height="30" as="geometry" />
        </mxCell>
        <mxCell id="YLxW0C4IHcAFHFS-hIZx-62" value="PK" style="shape=partialRectangle;connectable=0;fillColor=none;top=0;left=0;bottom=0;right=0;fontStyle=1;overflow=hidden;whiteSpace=wrap;html=1;" vertex="1" parent="YLxW0C4IHcAFHFS-hIZx-61">
          <mxGeometry width="30" height="30" as="geometry">
            <mxRectangle width="30" height="30" as="alternateBounds" />
          </mxGeometry>
        </mxCell>
        <mxCell id="YLxW0C4IHcAFHFS-hIZx-63" value="Id" style="shape=partialRectangle;connectable=0;fillColor=none;top=0;left=0;bottom=0;right=0;align=left;spacingLeft=6;fontStyle=5;overflow=hidden;whiteSpace=wrap;html=1;" vertex="1" parent="YLxW0C4IHcAFHFS-hIZx-61">
          <mxGeometry x="30" width="150" height="30" as="geometry">
            <mxRectangle width="150" height="30" as="alternateBounds" />
          </mxGeometry>
        </mxCell>
        <mxCell id="YLxW0C4IHcAFHFS-hIZx-64" value="" style="shape=tableRow;horizontal=0;startSize=0;swimlaneHead=0;swimlaneBody=0;fillColor=none;collapsible=0;dropTarget=0;points=[[0,0.5],[1,0.5]];portConstraint=eastwest;top=0;left=0;right=0;bottom=0;" vertex="1" parent="YLxW0C4IHcAFHFS-hIZx-60">
          <mxGeometry y="60" width="180" height="30" as="geometry" />
        </mxCell>
        <mxCell id="YLxW0C4IHcAFHFS-hIZx-65" value="" style="shape=partialRectangle;connectable=0;fillColor=none;top=0;left=0;bottom=0;right=0;editable=1;overflow=hidden;whiteSpace=wrap;html=1;" vertex="1" parent="YLxW0C4IHcAFHFS-hIZx-64">
          <mxGeometry width="30" height="30" as="geometry">
            <mxRectangle width="30" height="30" as="alternateBounds" />
          </mxGeometry>
        </mxCell>
        <mxCell id="YLxW0C4IHcAFHFS-hIZx-66" value="AspNet User props..." style="shape=partialRectangle;connectable=0;fillColor=none;top=0;left=0;bottom=0;right=0;align=left;spacingLeft=6;overflow=hidden;whiteSpace=wrap;html=1;" vertex="1" parent="YLxW0C4IHcAFHFS-hIZx-64">
          <mxGeometry x="30" width="150" height="30" as="geometry">
            <mxRectangle width="150" height="30" as="alternateBounds" />
          </mxGeometry>
        </mxCell>
        <mxCell id="YLxW0C4IHcAFHFS-hIZx-67" value="" style="shape=tableRow;horizontal=0;startSize=0;swimlaneHead=0;swimlaneBody=0;fillColor=none;collapsible=0;dropTarget=0;points=[[0,0.5],[1,0.5]];portConstraint=eastwest;top=0;left=0;right=0;bottom=0;" vertex="1" parent="YLxW0C4IHcAFHFS-hIZx-60">
          <mxGeometry y="90" width="180" height="30" as="geometry" />
        </mxCell>
        <mxCell id="YLxW0C4IHcAFHFS-hIZx-68" value="&lt;b&gt;FK&lt;/b&gt;" style="shape=partialRectangle;connectable=0;fillColor=none;top=0;left=0;bottom=0;right=0;editable=1;overflow=hidden;whiteSpace=wrap;html=1;" vertex="1" parent="YLxW0C4IHcAFHFS-hIZx-67">
          <mxGeometry width="30" height="30" as="geometry">
            <mxRectangle width="30" height="30" as="alternateBounds" />
          </mxGeometry>
        </mxCell>
        <mxCell id="YLxW0C4IHcAFHFS-hIZx-69" value="ProjectId: Long" style="shape=partialRectangle;connectable=0;fillColor=none;top=0;left=0;bottom=0;right=0;align=left;spacingLeft=6;overflow=hidden;whiteSpace=wrap;html=1;" vertex="1" parent="YLxW0C4IHcAFHFS-hIZx-67">
          <mxGeometry x="30" width="150" height="30" as="geometry">
            <mxRectangle width="150" height="30" as="alternateBounds" />
          </mxGeometry>
        </mxCell>
        <mxCell id="YLxW0C4IHcAFHFS-hIZx-70" value="" style="shape=tableRow;horizontal=0;startSize=0;swimlaneHead=0;swimlaneBody=0;fillColor=none;collapsible=0;dropTarget=0;points=[[0,0.5],[1,0.5]];portConstraint=eastwest;top=0;left=0;right=0;bottom=0;" vertex="1" parent="YLxW0C4IHcAFHFS-hIZx-60">
          <mxGeometry y="120" width="180" height="30" as="geometry" />
        </mxCell>
        <mxCell id="YLxW0C4IHcAFHFS-hIZx-71" value="" style="shape=partialRectangle;connectable=0;fillColor=none;top=0;left=0;bottom=0;right=0;editable=1;overflow=hidden;whiteSpace=wrap;html=1;" vertex="1" parent="YLxW0C4IHcAFHFS-hIZx-70">
          <mxGeometry width="30" height="30" as="geometry">
            <mxRectangle width="30" height="30" as="alternateBounds" />
          </mxGeometry>
        </mxCell>
        <mxCell id="YLxW0C4IHcAFHFS-hIZx-72" value="" style="shape=partialRectangle;connectable=0;fillColor=none;top=0;left=0;bottom=0;right=0;align=left;spacingLeft=6;overflow=hidden;whiteSpace=wrap;html=1;" vertex="1" parent="YLxW0C4IHcAFHFS-hIZx-70">
          <mxGeometry x="30" width="150" height="30" as="geometry">
            <mxRectangle width="150" height="30" as="alternateBounds" />
          </mxGeometry>
        </mxCell>
        <mxCell id="YLxW0C4IHcAFHFS-hIZx-74" value="" style="edgeStyle=entityRelationEdgeStyle;fontSize=12;html=1;endArrow=ERzeroToMany;endFill=1;rounded=0;exitX=1;exitY=0.5;exitDx=0;exitDy=0;entryX=0;entryY=0.5;entryDx=0;entryDy=0;" edge="1" parent="1" source="YLxW0C4IHcAFHFS-hIZx-27" target="YLxW0C4IHcAFHFS-hIZx-67">
          <mxGeometry width="100" height="100" relative="1" as="geometry">
            <mxPoint x="920" y="544.4" as="sourcePoint" />
            <mxPoint x="1020" y="446.4" as="targetPoint" />
          </mxGeometry>
        </mxCell>
        <mxCell id="YLxW0C4IHcAFHFS-hIZx-75" value="Ticket" style="shape=table;startSize=30;container=1;collapsible=1;childLayout=tableLayout;fixedRows=1;rowLines=0;fontStyle=1;align=center;resizeLast=1;html=1;" vertex="1" parent="1">
          <mxGeometry x="1012" y="630" width="180" height="360" as="geometry" />
        </mxCell>
        <mxCell id="YLxW0C4IHcAFHFS-hIZx-76" value="" style="shape=tableRow;horizontal=0;startSize=0;swimlaneHead=0;swimlaneBody=0;fillColor=none;collapsible=0;dropTarget=0;points=[[0,0.5],[1,0.5]];portConstraint=eastwest;top=0;left=0;right=0;bottom=1;" vertex="1" parent="YLxW0C4IHcAFHFS-hIZx-75">
          <mxGeometry y="30" width="180" height="30" as="geometry" />
        </mxCell>
        <mxCell id="YLxW0C4IHcAFHFS-hIZx-77" value="PK" style="shape=partialRectangle;connectable=0;fillColor=none;top=0;left=0;bottom=0;right=0;fontStyle=1;overflow=hidden;whiteSpace=wrap;html=1;" vertex="1" parent="YLxW0C4IHcAFHFS-hIZx-76">
          <mxGeometry width="30" height="30" as="geometry">
            <mxRectangle width="30" height="30" as="alternateBounds" />
          </mxGeometry>
        </mxCell>
        <mxCell id="YLxW0C4IHcAFHFS-hIZx-78" value="Id" style="shape=partialRectangle;connectable=0;fillColor=none;top=0;left=0;bottom=0;right=0;align=left;spacingLeft=6;fontStyle=5;overflow=hidden;whiteSpace=wrap;html=1;" vertex="1" parent="YLxW0C4IHcAFHFS-hIZx-76">
          <mxGeometry x="30" width="150" height="30" as="geometry">
            <mxRectangle width="150" height="30" as="alternateBounds" />
          </mxGeometry>
        </mxCell>
        <mxCell id="YLxW0C4IHcAFHFS-hIZx-79" value="" style="shape=tableRow;horizontal=0;startSize=0;swimlaneHead=0;swimlaneBody=0;fillColor=none;collapsible=0;dropTarget=0;points=[[0,0.5],[1,0.5]];portConstraint=eastwest;top=0;left=0;right=0;bottom=0;" vertex="1" parent="YLxW0C4IHcAFHFS-hIZx-75">
          <mxGeometry y="60" width="180" height="30" as="geometry" />
        </mxCell>
        <mxCell id="YLxW0C4IHcAFHFS-hIZx-80" value="" style="shape=partialRectangle;connectable=0;fillColor=none;top=0;left=0;bottom=0;right=0;editable=1;overflow=hidden;whiteSpace=wrap;html=1;" vertex="1" parent="YLxW0C4IHcAFHFS-hIZx-79">
          <mxGeometry width="30" height="30" as="geometry">
            <mxRectangle width="30" height="30" as="alternateBounds" />
          </mxGeometry>
        </mxCell>
        <mxCell id="YLxW0C4IHcAFHFS-hIZx-81" value="Title" style="shape=partialRectangle;connectable=0;fillColor=none;top=0;left=0;bottom=0;right=0;align=left;spacingLeft=6;overflow=hidden;whiteSpace=wrap;html=1;" vertex="1" parent="YLxW0C4IHcAFHFS-hIZx-79">
          <mxGeometry x="30" width="150" height="30" as="geometry">
            <mxRectangle width="150" height="30" as="alternateBounds" />
          </mxGeometry>
        </mxCell>
        <mxCell id="YLxW0C4IHcAFHFS-hIZx-82" value="" style="shape=tableRow;horizontal=0;startSize=0;swimlaneHead=0;swimlaneBody=0;fillColor=none;collapsible=0;dropTarget=0;points=[[0,0.5],[1,0.5]];portConstraint=eastwest;top=0;left=0;right=0;bottom=0;" vertex="1" parent="YLxW0C4IHcAFHFS-hIZx-75">
          <mxGeometry y="90" width="180" height="30" as="geometry" />
        </mxCell>
        <mxCell id="YLxW0C4IHcAFHFS-hIZx-83" value="" style="shape=partialRectangle;connectable=0;fillColor=none;top=0;left=0;bottom=0;right=0;editable=1;overflow=hidden;whiteSpace=wrap;html=1;" vertex="1" parent="YLxW0C4IHcAFHFS-hIZx-82">
          <mxGeometry width="30" height="30" as="geometry">
            <mxRectangle width="30" height="30" as="alternateBounds" />
          </mxGeometry>
        </mxCell>
        <mxCell id="YLxW0C4IHcAFHFS-hIZx-84" value="Description" style="shape=partialRectangle;connectable=0;fillColor=none;top=0;left=0;bottom=0;right=0;align=left;spacingLeft=6;overflow=hidden;whiteSpace=wrap;html=1;" vertex="1" parent="YLxW0C4IHcAFHFS-hIZx-82">
          <mxGeometry x="30" width="150" height="30" as="geometry">
            <mxRectangle width="150" height="30" as="alternateBounds" />
          </mxGeometry>
        </mxCell>
        <mxCell id="YLxW0C4IHcAFHFS-hIZx-85" value="" style="shape=tableRow;horizontal=0;startSize=0;swimlaneHead=0;swimlaneBody=0;fillColor=none;collapsible=0;dropTarget=0;points=[[0,0.5],[1,0.5]];portConstraint=eastwest;top=0;left=0;right=0;bottom=0;" vertex="1" parent="YLxW0C4IHcAFHFS-hIZx-75">
          <mxGeometry y="120" width="180" height="30" as="geometry" />
        </mxCell>
        <mxCell id="YLxW0C4IHcAFHFS-hIZx-86" value="FK" style="shape=partialRectangle;connectable=0;fillColor=none;top=0;left=0;bottom=0;right=0;editable=1;overflow=hidden;whiteSpace=wrap;html=1;fontStyle=1" vertex="1" parent="YLxW0C4IHcAFHFS-hIZx-85">
          <mxGeometry width="30" height="30" as="geometry">
            <mxRectangle width="30" height="30" as="alternateBounds" />
          </mxGeometry>
        </mxCell>
        <mxCell id="YLxW0C4IHcAFHFS-hIZx-87" value="ProjectId" style="shape=partialRectangle;connectable=0;fillColor=none;top=0;left=0;bottom=0;right=0;align=left;spacingLeft=6;overflow=hidden;whiteSpace=wrap;html=1;" vertex="1" parent="YLxW0C4IHcAFHFS-hIZx-85">
          <mxGeometry x="30" width="150" height="30" as="geometry">
            <mxRectangle width="150" height="30" as="alternateBounds" />
          </mxGeometry>
        </mxCell>
        <mxCell id="YLxW0C4IHcAFHFS-hIZx-88" style="shape=tableRow;horizontal=0;startSize=0;swimlaneHead=0;swimlaneBody=0;fillColor=none;collapsible=0;dropTarget=0;points=[[0,0.5],[1,0.5]];portConstraint=eastwest;top=0;left=0;right=0;bottom=0;" vertex="1" parent="YLxW0C4IHcAFHFS-hIZx-75">
          <mxGeometry y="150" width="180" height="30" as="geometry" />
        </mxCell>
        <mxCell id="YLxW0C4IHcAFHFS-hIZx-89" value="FK" style="shape=partialRectangle;connectable=0;fillColor=none;top=0;left=0;bottom=0;right=0;editable=1;overflow=hidden;whiteSpace=wrap;html=1;fontStyle=1" vertex="1" parent="YLxW0C4IHcAFHFS-hIZx-88">
          <mxGeometry width="30" height="30" as="geometry">
            <mxRectangle width="30" height="30" as="alternateBounds" />
          </mxGeometry>
        </mxCell>
        <mxCell id="YLxW0C4IHcAFHFS-hIZx-90" value="UserId" style="shape=partialRectangle;connectable=0;fillColor=none;top=0;left=0;bottom=0;right=0;align=left;spacingLeft=6;overflow=hidden;whiteSpace=wrap;html=1;" vertex="1" parent="YLxW0C4IHcAFHFS-hIZx-88">
          <mxGeometry x="30" width="150" height="30" as="geometry">
            <mxRectangle width="150" height="30" as="alternateBounds" />
          </mxGeometry>
        </mxCell>
        <mxCell id="YLxW0C4IHcAFHFS-hIZx-91" style="shape=tableRow;horizontal=0;startSize=0;swimlaneHead=0;swimlaneBody=0;fillColor=none;collapsible=0;dropTarget=0;points=[[0,0.5],[1,0.5]];portConstraint=eastwest;top=0;left=0;right=0;bottom=0;" vertex="1" parent="YLxW0C4IHcAFHFS-hIZx-75">
          <mxGeometry y="180" width="180" height="30" as="geometry" />
        </mxCell>
        <mxCell id="YLxW0C4IHcAFHFS-hIZx-92" value="&lt;b&gt;FK&lt;/b&gt;" style="shape=partialRectangle;connectable=0;fillColor=none;top=0;left=0;bottom=0;right=0;editable=1;overflow=hidden;whiteSpace=wrap;html=1;" vertex="1" parent="YLxW0C4IHcAFHFS-hIZx-91">
          <mxGeometry width="30" height="30" as="geometry">
            <mxRectangle width="30" height="30" as="alternateBounds" />
          </mxGeometry>
        </mxCell>
        <mxCell id="YLxW0C4IHcAFHFS-hIZx-93" value="CategoryId" style="shape=partialRectangle;connectable=0;fillColor=none;top=0;left=0;bottom=0;right=0;align=left;spacingLeft=6;overflow=hidden;whiteSpace=wrap;html=1;" vertex="1" parent="YLxW0C4IHcAFHFS-hIZx-91">
          <mxGeometry x="30" width="150" height="30" as="geometry">
            <mxRectangle width="150" height="30" as="alternateBounds" />
          </mxGeometry>
        </mxCell>
        <mxCell id="YLxW0C4IHcAFHFS-hIZx-94" style="shape=tableRow;horizontal=0;startSize=0;swimlaneHead=0;swimlaneBody=0;fillColor=none;collapsible=0;dropTarget=0;points=[[0,0.5],[1,0.5]];portConstraint=eastwest;top=0;left=0;right=0;bottom=0;" vertex="1" parent="YLxW0C4IHcAFHFS-hIZx-75">
          <mxGeometry y="210" width="180" height="30" as="geometry" />
        </mxCell>
        <mxCell id="YLxW0C4IHcAFHFS-hIZx-95" value="&lt;b&gt;FK&lt;/b&gt;" style="shape=partialRectangle;connectable=0;fillColor=none;top=0;left=0;bottom=0;right=0;editable=1;overflow=hidden;whiteSpace=wrap;html=1;" vertex="1" parent="YLxW0C4IHcAFHFS-hIZx-94">
          <mxGeometry width="30" height="30" as="geometry">
            <mxRectangle width="30" height="30" as="alternateBounds" />
          </mxGeometry>
        </mxCell>
        <mxCell id="YLxW0C4IHcAFHFS-hIZx-96" value="StatusId" style="shape=partialRectangle;connectable=0;fillColor=none;top=0;left=0;bottom=0;right=0;align=left;spacingLeft=6;overflow=hidden;whiteSpace=wrap;html=1;" vertex="1" parent="YLxW0C4IHcAFHFS-hIZx-94">
          <mxGeometry x="30" width="150" height="30" as="geometry">
            <mxRectangle width="150" height="30" as="alternateBounds" />
          </mxGeometry>
        </mxCell>
        <mxCell id="YLxW0C4IHcAFHFS-hIZx-97" style="shape=tableRow;horizontal=0;startSize=0;swimlaneHead=0;swimlaneBody=0;fillColor=none;collapsible=0;dropTarget=0;points=[[0,0.5],[1,0.5]];portConstraint=eastwest;top=0;left=0;right=0;bottom=0;" vertex="1" parent="YLxW0C4IHcAFHFS-hIZx-75">
          <mxGeometry y="240" width="180" height="30" as="geometry" />
        </mxCell>
        <mxCell id="YLxW0C4IHcAFHFS-hIZx-98" value="FK" style="shape=partialRectangle;connectable=0;fillColor=none;top=0;left=0;bottom=0;right=0;editable=1;overflow=hidden;whiteSpace=wrap;html=1;fontStyle=1" vertex="1" parent="YLxW0C4IHcAFHFS-hIZx-97">
          <mxGeometry width="30" height="30" as="geometry">
            <mxRectangle width="30" height="30" as="alternateBounds" />
          </mxGeometry>
        </mxCell>
        <mxCell id="YLxW0C4IHcAFHFS-hIZx-99" value="PriorityId" style="shape=partialRectangle;connectable=0;fillColor=none;top=0;left=0;bottom=0;right=0;align=left;spacingLeft=6;overflow=hidden;whiteSpace=wrap;html=1;" vertex="1" parent="YLxW0C4IHcAFHFS-hIZx-97">
          <mxGeometry x="30" width="150" height="30" as="geometry">
            <mxRectangle width="150" height="30" as="alternateBounds" />
          </mxGeometry>
        </mxCell>
        <mxCell id="YLxW0C4IHcAFHFS-hIZx-100" style="shape=tableRow;horizontal=0;startSize=0;swimlaneHead=0;swimlaneBody=0;fillColor=none;collapsible=0;dropTarget=0;points=[[0,0.5],[1,0.5]];portConstraint=eastwest;top=0;left=0;right=0;bottom=0;" vertex="1" parent="YLxW0C4IHcAFHFS-hIZx-75">
          <mxGeometry y="270" width="180" height="30" as="geometry" />
        </mxCell>
        <mxCell id="YLxW0C4IHcAFHFS-hIZx-101" style="shape=partialRectangle;connectable=0;fillColor=none;top=0;left=0;bottom=0;right=0;editable=1;overflow=hidden;whiteSpace=wrap;html=1;" vertex="1" parent="YLxW0C4IHcAFHFS-hIZx-100">
          <mxGeometry width="30" height="30" as="geometry">
            <mxRectangle width="30" height="30" as="alternateBounds" />
          </mxGeometry>
        </mxCell>
        <mxCell id="YLxW0C4IHcAFHFS-hIZx-102" style="shape=partialRectangle;connectable=0;fillColor=none;top=0;left=0;bottom=0;right=0;align=left;spacingLeft=6;overflow=hidden;whiteSpace=wrap;html=1;" vertex="1" parent="YLxW0C4IHcAFHFS-hIZx-100">
          <mxGeometry x="30" width="150" height="30" as="geometry">
            <mxRectangle width="150" height="30" as="alternateBounds" />
          </mxGeometry>
        </mxCell>
        <mxCell id="YLxW0C4IHcAFHFS-hIZx-103" style="shape=tableRow;horizontal=0;startSize=0;swimlaneHead=0;swimlaneBody=0;fillColor=none;collapsible=0;dropTarget=0;points=[[0,0.5],[1,0.5]];portConstraint=eastwest;top=0;left=0;right=0;bottom=0;" vertex="1" parent="YLxW0C4IHcAFHFS-hIZx-75">
          <mxGeometry y="300" width="180" height="30" as="geometry" />
        </mxCell>
        <mxCell id="YLxW0C4IHcAFHFS-hIZx-104" style="shape=partialRectangle;connectable=0;fillColor=none;top=0;left=0;bottom=0;right=0;editable=1;overflow=hidden;whiteSpace=wrap;html=1;" vertex="1" parent="YLxW0C4IHcAFHFS-hIZx-103">
          <mxGeometry width="30" height="30" as="geometry">
            <mxRectangle width="30" height="30" as="alternateBounds" />
          </mxGeometry>
        </mxCell>
        <mxCell id="YLxW0C4IHcAFHFS-hIZx-105" style="shape=partialRectangle;connectable=0;fillColor=none;top=0;left=0;bottom=0;right=0;align=left;spacingLeft=6;overflow=hidden;whiteSpace=wrap;html=1;" vertex="1" parent="YLxW0C4IHcAFHFS-hIZx-103">
          <mxGeometry x="30" width="150" height="30" as="geometry">
            <mxRectangle width="150" height="30" as="alternateBounds" />
          </mxGeometry>
        </mxCell>
        <mxCell id="YLxW0C4IHcAFHFS-hIZx-106" style="shape=tableRow;horizontal=0;startSize=0;swimlaneHead=0;swimlaneBody=0;fillColor=none;collapsible=0;dropTarget=0;points=[[0,0.5],[1,0.5]];portConstraint=eastwest;top=0;left=0;right=0;bottom=0;" vertex="1" parent="YLxW0C4IHcAFHFS-hIZx-75">
          <mxGeometry y="330" width="180" height="30" as="geometry" />
        </mxCell>
        <mxCell id="YLxW0C4IHcAFHFS-hIZx-107" style="shape=partialRectangle;connectable=0;fillColor=none;top=0;left=0;bottom=0;right=0;editable=1;overflow=hidden;whiteSpace=wrap;html=1;" vertex="1" parent="YLxW0C4IHcAFHFS-hIZx-106">
          <mxGeometry width="30" height="30" as="geometry">
            <mxRectangle width="30" height="30" as="alternateBounds" />
          </mxGeometry>
        </mxCell>
        <mxCell id="YLxW0C4IHcAFHFS-hIZx-108" style="shape=partialRectangle;connectable=0;fillColor=none;top=0;left=0;bottom=0;right=0;align=left;spacingLeft=6;overflow=hidden;whiteSpace=wrap;html=1;" vertex="1" parent="YLxW0C4IHcAFHFS-hIZx-106">
          <mxGeometry x="30" width="150" height="30" as="geometry">
            <mxRectangle width="150" height="30" as="alternateBounds" />
          </mxGeometry>
        </mxCell>
        <mxCell id="YLxW0C4IHcAFHFS-hIZx-150" value="" style="rounded=0;whiteSpace=wrap;html=1;" vertex="1" parent="1">
          <mxGeometry x="1330" y="330" width="830" height="490" as="geometry" />
        </mxCell>
        <mxCell id="YLxW0C4IHcAFHFS-hIZx-151" value="TicketCategory : BaseEntityDictionary" style="shape=table;startSize=30;container=1;collapsible=1;childLayout=tableLayout;fixedRows=1;rowLines=0;fontStyle=1;align=center;resizeLast=1;html=1;" vertex="1" parent="1">
          <mxGeometry x="1635" y="630" width="240" height="150" as="geometry" />
        </mxCell>
        <mxCell id="YLxW0C4IHcAFHFS-hIZx-152" value="" style="shape=tableRow;horizontal=0;startSize=0;swimlaneHead=0;swimlaneBody=0;fillColor=none;collapsible=0;dropTarget=0;points=[[0,0.5],[1,0.5]];portConstraint=eastwest;top=0;left=0;right=0;bottom=1;" vertex="1" parent="YLxW0C4IHcAFHFS-hIZx-151">
          <mxGeometry y="30" width="240" height="30" as="geometry" />
        </mxCell>
        <mxCell id="YLxW0C4IHcAFHFS-hIZx-153" value="PK" style="shape=partialRectangle;connectable=0;fillColor=none;top=0;left=0;bottom=0;right=0;fontStyle=1;overflow=hidden;whiteSpace=wrap;html=1;" vertex="1" parent="YLxW0C4IHcAFHFS-hIZx-152">
          <mxGeometry width="30" height="30" as="geometry">
            <mxRectangle width="30" height="30" as="alternateBounds" />
          </mxGeometry>
        </mxCell>
        <mxCell id="YLxW0C4IHcAFHFS-hIZx-154" value="" style="shape=partialRectangle;connectable=0;fillColor=none;top=0;left=0;bottom=0;right=0;align=left;spacingLeft=6;fontStyle=5;overflow=hidden;whiteSpace=wrap;html=1;" vertex="1" parent="YLxW0C4IHcAFHFS-hIZx-152">
          <mxGeometry x="30" width="210" height="30" as="geometry">
            <mxRectangle width="210" height="30" as="alternateBounds" />
          </mxGeometry>
        </mxCell>
        <mxCell id="YLxW0C4IHcAFHFS-hIZx-155" value="" style="shape=tableRow;horizontal=0;startSize=0;swimlaneHead=0;swimlaneBody=0;fillColor=none;collapsible=0;dropTarget=0;points=[[0,0.5],[1,0.5]];portConstraint=eastwest;top=0;left=0;right=0;bottom=0;" vertex="1" parent="YLxW0C4IHcAFHFS-hIZx-151">
          <mxGeometry y="60" width="240" height="30" as="geometry" />
        </mxCell>
        <mxCell id="YLxW0C4IHcAFHFS-hIZx-156" value="" style="shape=partialRectangle;connectable=0;fillColor=none;top=0;left=0;bottom=0;right=0;editable=1;overflow=hidden;whiteSpace=wrap;html=1;" vertex="1" parent="YLxW0C4IHcAFHFS-hIZx-155">
          <mxGeometry width="30" height="30" as="geometry">
            <mxRectangle width="30" height="30" as="alternateBounds" />
          </mxGeometry>
        </mxCell>
        <mxCell id="YLxW0C4IHcAFHFS-hIZx-157" value="" style="shape=partialRectangle;connectable=0;fillColor=none;top=0;left=0;bottom=0;right=0;align=left;spacingLeft=6;overflow=hidden;whiteSpace=wrap;html=1;" vertex="1" parent="YLxW0C4IHcAFHFS-hIZx-155">
          <mxGeometry x="30" width="210" height="30" as="geometry">
            <mxRectangle width="210" height="30" as="alternateBounds" />
          </mxGeometry>
        </mxCell>
        <mxCell id="YLxW0C4IHcAFHFS-hIZx-158" value="" style="shape=tableRow;horizontal=0;startSize=0;swimlaneHead=0;swimlaneBody=0;fillColor=none;collapsible=0;dropTarget=0;points=[[0,0.5],[1,0.5]];portConstraint=eastwest;top=0;left=0;right=0;bottom=0;" vertex="1" parent="YLxW0C4IHcAFHFS-hIZx-151">
          <mxGeometry y="90" width="240" height="30" as="geometry" />
        </mxCell>
        <mxCell id="YLxW0C4IHcAFHFS-hIZx-159" value="" style="shape=partialRectangle;connectable=0;fillColor=none;top=0;left=0;bottom=0;right=0;editable=1;overflow=hidden;whiteSpace=wrap;html=1;" vertex="1" parent="YLxW0C4IHcAFHFS-hIZx-158">
          <mxGeometry width="30" height="30" as="geometry">
            <mxRectangle width="30" height="30" as="alternateBounds" />
          </mxGeometry>
        </mxCell>
        <mxCell id="YLxW0C4IHcAFHFS-hIZx-160" value="" style="shape=partialRectangle;connectable=0;fillColor=none;top=0;left=0;bottom=0;right=0;align=left;spacingLeft=6;overflow=hidden;whiteSpace=wrap;html=1;" vertex="1" parent="YLxW0C4IHcAFHFS-hIZx-158">
          <mxGeometry x="30" width="210" height="30" as="geometry">
            <mxRectangle width="210" height="30" as="alternateBounds" />
          </mxGeometry>
        </mxCell>
        <mxCell id="YLxW0C4IHcAFHFS-hIZx-161" value="" style="shape=tableRow;horizontal=0;startSize=0;swimlaneHead=0;swimlaneBody=0;fillColor=none;collapsible=0;dropTarget=0;points=[[0,0.5],[1,0.5]];portConstraint=eastwest;top=0;left=0;right=0;bottom=0;" vertex="1" parent="YLxW0C4IHcAFHFS-hIZx-151">
          <mxGeometry y="120" width="240" height="30" as="geometry" />
        </mxCell>
        <mxCell id="YLxW0C4IHcAFHFS-hIZx-162" value="" style="shape=partialRectangle;connectable=0;fillColor=none;top=0;left=0;bottom=0;right=0;editable=1;overflow=hidden;whiteSpace=wrap;html=1;" vertex="1" parent="YLxW0C4IHcAFHFS-hIZx-161">
          <mxGeometry width="30" height="30" as="geometry">
            <mxRectangle width="30" height="30" as="alternateBounds" />
          </mxGeometry>
        </mxCell>
        <mxCell id="YLxW0C4IHcAFHFS-hIZx-163" value="" style="shape=partialRectangle;connectable=0;fillColor=none;top=0;left=0;bottom=0;right=0;align=left;spacingLeft=6;overflow=hidden;whiteSpace=wrap;html=1;" vertex="1" parent="YLxW0C4IHcAFHFS-hIZx-161">
          <mxGeometry x="30" width="210" height="30" as="geometry">
            <mxRectangle width="210" height="30" as="alternateBounds" />
          </mxGeometry>
        </mxCell>
        <mxCell id="YLxW0C4IHcAFHFS-hIZx-164" value="TicketPriority: BaseEntityDictionary" style="shape=table;startSize=30;container=1;collapsible=1;childLayout=tableLayout;fixedRows=1;rowLines=0;fontStyle=1;align=center;resizeLast=1;html=1;" vertex="1" parent="1">
          <mxGeometry x="1380" y="630" width="240" height="150" as="geometry" />
        </mxCell>
        <mxCell id="YLxW0C4IHcAFHFS-hIZx-165" value="" style="shape=tableRow;horizontal=0;startSize=0;swimlaneHead=0;swimlaneBody=0;fillColor=none;collapsible=0;dropTarget=0;points=[[0,0.5],[1,0.5]];portConstraint=eastwest;top=0;left=0;right=0;bottom=1;" vertex="1" parent="YLxW0C4IHcAFHFS-hIZx-164">
          <mxGeometry y="30" width="240" height="30" as="geometry" />
        </mxCell>
        <mxCell id="YLxW0C4IHcAFHFS-hIZx-166" value="PK" style="shape=partialRectangle;connectable=0;fillColor=none;top=0;left=0;bottom=0;right=0;fontStyle=1;overflow=hidden;whiteSpace=wrap;html=1;" vertex="1" parent="YLxW0C4IHcAFHFS-hIZx-165">
          <mxGeometry width="30" height="30" as="geometry">
            <mxRectangle width="30" height="30" as="alternateBounds" />
          </mxGeometry>
        </mxCell>
        <mxCell id="YLxW0C4IHcAFHFS-hIZx-167" value="" style="shape=partialRectangle;connectable=0;fillColor=none;top=0;left=0;bottom=0;right=0;align=left;spacingLeft=6;fontStyle=5;overflow=hidden;whiteSpace=wrap;html=1;" vertex="1" parent="YLxW0C4IHcAFHFS-hIZx-165">
          <mxGeometry x="30" width="210" height="30" as="geometry">
            <mxRectangle width="210" height="30" as="alternateBounds" />
          </mxGeometry>
        </mxCell>
        <mxCell id="YLxW0C4IHcAFHFS-hIZx-168" value="" style="shape=tableRow;horizontal=0;startSize=0;swimlaneHead=0;swimlaneBody=0;fillColor=none;collapsible=0;dropTarget=0;points=[[0,0.5],[1,0.5]];portConstraint=eastwest;top=0;left=0;right=0;bottom=0;" vertex="1" parent="YLxW0C4IHcAFHFS-hIZx-164">
          <mxGeometry y="60" width="240" height="30" as="geometry" />
        </mxCell>
        <mxCell id="YLxW0C4IHcAFHFS-hIZx-169" value="" style="shape=partialRectangle;connectable=0;fillColor=none;top=0;left=0;bottom=0;right=0;editable=1;overflow=hidden;whiteSpace=wrap;html=1;" vertex="1" parent="YLxW0C4IHcAFHFS-hIZx-168">
          <mxGeometry width="30" height="30" as="geometry">
            <mxRectangle width="30" height="30" as="alternateBounds" />
          </mxGeometry>
        </mxCell>
        <mxCell id="YLxW0C4IHcAFHFS-hIZx-170" value="" style="shape=partialRectangle;connectable=0;fillColor=none;top=0;left=0;bottom=0;right=0;align=left;spacingLeft=6;overflow=hidden;whiteSpace=wrap;html=1;" vertex="1" parent="YLxW0C4IHcAFHFS-hIZx-168">
          <mxGeometry x="30" width="210" height="30" as="geometry">
            <mxRectangle width="210" height="30" as="alternateBounds" />
          </mxGeometry>
        </mxCell>
        <mxCell id="YLxW0C4IHcAFHFS-hIZx-171" value="" style="shape=tableRow;horizontal=0;startSize=0;swimlaneHead=0;swimlaneBody=0;fillColor=none;collapsible=0;dropTarget=0;points=[[0,0.5],[1,0.5]];portConstraint=eastwest;top=0;left=0;right=0;bottom=0;" vertex="1" parent="YLxW0C4IHcAFHFS-hIZx-164">
          <mxGeometry y="90" width="240" height="30" as="geometry" />
        </mxCell>
        <mxCell id="YLxW0C4IHcAFHFS-hIZx-172" value="" style="shape=partialRectangle;connectable=0;fillColor=none;top=0;left=0;bottom=0;right=0;editable=1;overflow=hidden;whiteSpace=wrap;html=1;" vertex="1" parent="YLxW0C4IHcAFHFS-hIZx-171">
          <mxGeometry width="30" height="30" as="geometry">
            <mxRectangle width="30" height="30" as="alternateBounds" />
          </mxGeometry>
        </mxCell>
        <mxCell id="YLxW0C4IHcAFHFS-hIZx-173" value="" style="shape=partialRectangle;connectable=0;fillColor=none;top=0;left=0;bottom=0;right=0;align=left;spacingLeft=6;overflow=hidden;whiteSpace=wrap;html=1;" vertex="1" parent="YLxW0C4IHcAFHFS-hIZx-171">
          <mxGeometry x="30" width="210" height="30" as="geometry">
            <mxRectangle width="210" height="30" as="alternateBounds" />
          </mxGeometry>
        </mxCell>
        <mxCell id="YLxW0C4IHcAFHFS-hIZx-174" value="" style="shape=tableRow;horizontal=0;startSize=0;swimlaneHead=0;swimlaneBody=0;fillColor=none;collapsible=0;dropTarget=0;points=[[0,0.5],[1,0.5]];portConstraint=eastwest;top=0;left=0;right=0;bottom=0;" vertex="1" parent="YLxW0C4IHcAFHFS-hIZx-164">
          <mxGeometry y="120" width="240" height="30" as="geometry" />
        </mxCell>
        <mxCell id="YLxW0C4IHcAFHFS-hIZx-175" value="" style="shape=partialRectangle;connectable=0;fillColor=none;top=0;left=0;bottom=0;right=0;editable=1;overflow=hidden;whiteSpace=wrap;html=1;" vertex="1" parent="YLxW0C4IHcAFHFS-hIZx-174">
          <mxGeometry width="30" height="30" as="geometry">
            <mxRectangle width="30" height="30" as="alternateBounds" />
          </mxGeometry>
        </mxCell>
        <mxCell id="YLxW0C4IHcAFHFS-hIZx-176" value="" style="shape=partialRectangle;connectable=0;fillColor=none;top=0;left=0;bottom=0;right=0;align=left;spacingLeft=6;overflow=hidden;whiteSpace=wrap;html=1;" vertex="1" parent="YLxW0C4IHcAFHFS-hIZx-174">
          <mxGeometry x="30" width="210" height="30" as="geometry">
            <mxRectangle width="210" height="30" as="alternateBounds" />
          </mxGeometry>
        </mxCell>
        <mxCell id="YLxW0C4IHcAFHFS-hIZx-177" value="TicketStatus : BaseEntityDictionary" style="shape=table;startSize=30;container=1;collapsible=1;childLayout=tableLayout;fixedRows=1;rowLines=0;fontStyle=1;align=center;resizeLast=1;html=1;" vertex="1" parent="1">
          <mxGeometry x="1890" y="630" width="240" height="150" as="geometry" />
        </mxCell>
        <mxCell id="YLxW0C4IHcAFHFS-hIZx-178" value="" style="shape=tableRow;horizontal=0;startSize=0;swimlaneHead=0;swimlaneBody=0;fillColor=none;collapsible=0;dropTarget=0;points=[[0,0.5],[1,0.5]];portConstraint=eastwest;top=0;left=0;right=0;bottom=1;" vertex="1" parent="YLxW0C4IHcAFHFS-hIZx-177">
          <mxGeometry y="30" width="240" height="30" as="geometry" />
        </mxCell>
        <mxCell id="YLxW0C4IHcAFHFS-hIZx-179" value="PK" style="shape=partialRectangle;connectable=0;fillColor=none;top=0;left=0;bottom=0;right=0;fontStyle=1;overflow=hidden;whiteSpace=wrap;html=1;" vertex="1" parent="YLxW0C4IHcAFHFS-hIZx-178">
          <mxGeometry width="30" height="30" as="geometry">
            <mxRectangle width="30" height="30" as="alternateBounds" />
          </mxGeometry>
        </mxCell>
        <mxCell id="YLxW0C4IHcAFHFS-hIZx-180" value="" style="shape=partialRectangle;connectable=0;fillColor=none;top=0;left=0;bottom=0;right=0;align=left;spacingLeft=6;fontStyle=5;overflow=hidden;whiteSpace=wrap;html=1;" vertex="1" parent="YLxW0C4IHcAFHFS-hIZx-178">
          <mxGeometry x="30" width="210" height="30" as="geometry">
            <mxRectangle width="210" height="30" as="alternateBounds" />
          </mxGeometry>
        </mxCell>
        <mxCell id="YLxW0C4IHcAFHFS-hIZx-181" value="" style="shape=tableRow;horizontal=0;startSize=0;swimlaneHead=0;swimlaneBody=0;fillColor=none;collapsible=0;dropTarget=0;points=[[0,0.5],[1,0.5]];portConstraint=eastwest;top=0;left=0;right=0;bottom=0;" vertex="1" parent="YLxW0C4IHcAFHFS-hIZx-177">
          <mxGeometry y="60" width="240" height="30" as="geometry" />
        </mxCell>
        <mxCell id="YLxW0C4IHcAFHFS-hIZx-182" value="" style="shape=partialRectangle;connectable=0;fillColor=none;top=0;left=0;bottom=0;right=0;editable=1;overflow=hidden;whiteSpace=wrap;html=1;" vertex="1" parent="YLxW0C4IHcAFHFS-hIZx-181">
          <mxGeometry width="30" height="30" as="geometry">
            <mxRectangle width="30" height="30" as="alternateBounds" />
          </mxGeometry>
        </mxCell>
        <mxCell id="YLxW0C4IHcAFHFS-hIZx-183" value="" style="shape=partialRectangle;connectable=0;fillColor=none;top=0;left=0;bottom=0;right=0;align=left;spacingLeft=6;overflow=hidden;whiteSpace=wrap;html=1;" vertex="1" parent="YLxW0C4IHcAFHFS-hIZx-181">
          <mxGeometry x="30" width="210" height="30" as="geometry">
            <mxRectangle width="210" height="30" as="alternateBounds" />
          </mxGeometry>
        </mxCell>
        <mxCell id="YLxW0C4IHcAFHFS-hIZx-184" value="" style="shape=tableRow;horizontal=0;startSize=0;swimlaneHead=0;swimlaneBody=0;fillColor=none;collapsible=0;dropTarget=0;points=[[0,0.5],[1,0.5]];portConstraint=eastwest;top=0;left=0;right=0;bottom=0;" vertex="1" parent="YLxW0C4IHcAFHFS-hIZx-177">
          <mxGeometry y="90" width="240" height="30" as="geometry" />
        </mxCell>
        <mxCell id="YLxW0C4IHcAFHFS-hIZx-185" value="" style="shape=partialRectangle;connectable=0;fillColor=none;top=0;left=0;bottom=0;right=0;editable=1;overflow=hidden;whiteSpace=wrap;html=1;" vertex="1" parent="YLxW0C4IHcAFHFS-hIZx-184">
          <mxGeometry width="30" height="30" as="geometry">
            <mxRectangle width="30" height="30" as="alternateBounds" />
          </mxGeometry>
        </mxCell>
        <mxCell id="YLxW0C4IHcAFHFS-hIZx-186" value="" style="shape=partialRectangle;connectable=0;fillColor=none;top=0;left=0;bottom=0;right=0;align=left;spacingLeft=6;overflow=hidden;whiteSpace=wrap;html=1;" vertex="1" parent="YLxW0C4IHcAFHFS-hIZx-184">
          <mxGeometry x="30" width="210" height="30" as="geometry">
            <mxRectangle width="210" height="30" as="alternateBounds" />
          </mxGeometry>
        </mxCell>
        <mxCell id="YLxW0C4IHcAFHFS-hIZx-187" value="" style="shape=tableRow;horizontal=0;startSize=0;swimlaneHead=0;swimlaneBody=0;fillColor=none;collapsible=0;dropTarget=0;points=[[0,0.5],[1,0.5]];portConstraint=eastwest;top=0;left=0;right=0;bottom=0;" vertex="1" parent="YLxW0C4IHcAFHFS-hIZx-177">
          <mxGeometry y="120" width="240" height="30" as="geometry" />
        </mxCell>
        <mxCell id="YLxW0C4IHcAFHFS-hIZx-188" value="" style="shape=partialRectangle;connectable=0;fillColor=none;top=0;left=0;bottom=0;right=0;editable=1;overflow=hidden;whiteSpace=wrap;html=1;" vertex="1" parent="YLxW0C4IHcAFHFS-hIZx-187">
          <mxGeometry width="30" height="30" as="geometry">
            <mxRectangle width="30" height="30" as="alternateBounds" />
          </mxGeometry>
        </mxCell>
        <mxCell id="YLxW0C4IHcAFHFS-hIZx-189" value="" style="shape=partialRectangle;connectable=0;fillColor=none;top=0;left=0;bottom=0;right=0;align=left;spacingLeft=6;overflow=hidden;whiteSpace=wrap;html=1;" vertex="1" parent="YLxW0C4IHcAFHFS-hIZx-187">
          <mxGeometry x="30" width="210" height="30" as="geometry">
            <mxRectangle width="210" height="30" as="alternateBounds" />
          </mxGeometry>
        </mxCell>
        <mxCell id="YLxW0C4IHcAFHFS-hIZx-222" style="edgeStyle=orthogonalEdgeStyle;rounded=0;orthogonalLoop=1;jettySize=auto;html=1;exitX=0.5;exitY=1;exitDx=0;exitDy=0;entryX=0.5;entryY=0;entryDx=0;entryDy=0;" edge="1" parent="1" source="YLxW0C4IHcAFHFS-hIZx-190" target="YLxW0C4IHcAFHFS-hIZx-164">
          <mxGeometry relative="1" as="geometry" />
        </mxCell>
        <mxCell id="YLxW0C4IHcAFHFS-hIZx-223" style="edgeStyle=orthogonalEdgeStyle;rounded=0;orthogonalLoop=1;jettySize=auto;html=1;exitX=0.5;exitY=1;exitDx=0;exitDy=0;entryX=0.5;entryY=0;entryDx=0;entryDy=0;" edge="1" parent="1" source="YLxW0C4IHcAFHFS-hIZx-190" target="YLxW0C4IHcAFHFS-hIZx-151">
          <mxGeometry relative="1" as="geometry" />
        </mxCell>
        <mxCell id="YLxW0C4IHcAFHFS-hIZx-224" style="edgeStyle=orthogonalEdgeStyle;rounded=0;orthogonalLoop=1;jettySize=auto;html=1;exitX=0.5;exitY=1;exitDx=0;exitDy=0;entryX=0.5;entryY=0;entryDx=0;entryDy=0;" edge="1" parent="1" source="YLxW0C4IHcAFHFS-hIZx-190" target="YLxW0C4IHcAFHFS-hIZx-177">
          <mxGeometry relative="1" as="geometry" />
        </mxCell>
        <mxCell id="YLxW0C4IHcAFHFS-hIZx-190" value="BaseEntityDictionary" style="shape=table;startSize=30;container=1;collapsible=1;childLayout=tableLayout;fixedRows=1;rowLines=0;fontStyle=1;align=center;resizeLast=1;html=1;" vertex="1" parent="1">
          <mxGeometry x="1635" y="338.6" width="240" height="211.4" as="geometry" />
        </mxCell>
        <mxCell id="YLxW0C4IHcAFHFS-hIZx-191" value="" style="shape=tableRow;horizontal=0;startSize=0;swimlaneHead=0;swimlaneBody=0;fillColor=none;collapsible=0;dropTarget=0;points=[[0,0.5],[1,0.5]];portConstraint=eastwest;top=0;left=0;right=0;bottom=1;" vertex="1" parent="YLxW0C4IHcAFHFS-hIZx-190">
          <mxGeometry y="30" width="240" height="30" as="geometry" />
        </mxCell>
        <mxCell id="YLxW0C4IHcAFHFS-hIZx-192" value="PK" style="shape=partialRectangle;connectable=0;fillColor=none;top=0;left=0;bottom=0;right=0;fontStyle=1;overflow=hidden;whiteSpace=wrap;html=1;" vertex="1" parent="YLxW0C4IHcAFHFS-hIZx-191">
          <mxGeometry width="30" height="30" as="geometry">
            <mxRectangle width="30" height="30" as="alternateBounds" />
          </mxGeometry>
        </mxCell>
        <mxCell id="YLxW0C4IHcAFHFS-hIZx-193" value="Id" style="shape=partialRectangle;connectable=0;fillColor=none;top=0;left=0;bottom=0;right=0;align=left;spacingLeft=6;fontStyle=5;overflow=hidden;whiteSpace=wrap;html=1;" vertex="1" parent="YLxW0C4IHcAFHFS-hIZx-191">
          <mxGeometry x="30" width="210" height="30" as="geometry">
            <mxRectangle width="210" height="30" as="alternateBounds" />
          </mxGeometry>
        </mxCell>
        <mxCell id="YLxW0C4IHcAFHFS-hIZx-194" value="" style="shape=tableRow;horizontal=0;startSize=0;swimlaneHead=0;swimlaneBody=0;fillColor=none;collapsible=0;dropTarget=0;points=[[0,0.5],[1,0.5]];portConstraint=eastwest;top=0;left=0;right=0;bottom=0;" vertex="1" parent="YLxW0C4IHcAFHFS-hIZx-190">
          <mxGeometry y="60" width="240" height="30" as="geometry" />
        </mxCell>
        <mxCell id="YLxW0C4IHcAFHFS-hIZx-195" value="" style="shape=partialRectangle;connectable=0;fillColor=none;top=0;left=0;bottom=0;right=0;editable=1;overflow=hidden;whiteSpace=wrap;html=1;" vertex="1" parent="YLxW0C4IHcAFHFS-hIZx-194">
          <mxGeometry width="30" height="30" as="geometry">
            <mxRectangle width="30" height="30" as="alternateBounds" />
          </mxGeometry>
        </mxCell>
        <mxCell id="YLxW0C4IHcAFHFS-hIZx-196" value="NameL1" style="shape=partialRectangle;connectable=0;fillColor=none;top=0;left=0;bottom=0;right=0;align=left;spacingLeft=6;overflow=hidden;whiteSpace=wrap;html=1;" vertex="1" parent="YLxW0C4IHcAFHFS-hIZx-194">
          <mxGeometry x="30" width="210" height="30" as="geometry">
            <mxRectangle width="210" height="30" as="alternateBounds" />
          </mxGeometry>
        </mxCell>
        <mxCell id="YLxW0C4IHcAFHFS-hIZx-197" value="" style="shape=tableRow;horizontal=0;startSize=0;swimlaneHead=0;swimlaneBody=0;fillColor=none;collapsible=0;dropTarget=0;points=[[0,0.5],[1,0.5]];portConstraint=eastwest;top=0;left=0;right=0;bottom=0;" vertex="1" parent="YLxW0C4IHcAFHFS-hIZx-190">
          <mxGeometry y="90" width="240" height="30" as="geometry" />
        </mxCell>
        <mxCell id="YLxW0C4IHcAFHFS-hIZx-198" value="" style="shape=partialRectangle;connectable=0;fillColor=none;top=0;left=0;bottom=0;right=0;editable=1;overflow=hidden;whiteSpace=wrap;html=1;" vertex="1" parent="YLxW0C4IHcAFHFS-hIZx-197">
          <mxGeometry width="30" height="30" as="geometry">
            <mxRectangle width="30" height="30" as="alternateBounds" />
          </mxGeometry>
        </mxCell>
        <mxCell id="YLxW0C4IHcAFHFS-hIZx-199" value="NameL2" style="shape=partialRectangle;connectable=0;fillColor=none;top=0;left=0;bottom=0;right=0;align=left;spacingLeft=6;overflow=hidden;whiteSpace=wrap;html=1;" vertex="1" parent="YLxW0C4IHcAFHFS-hIZx-197">
          <mxGeometry x="30" width="210" height="30" as="geometry">
            <mxRectangle width="210" height="30" as="alternateBounds" />
          </mxGeometry>
        </mxCell>
        <mxCell id="YLxW0C4IHcAFHFS-hIZx-200" value="" style="shape=tableRow;horizontal=0;startSize=0;swimlaneHead=0;swimlaneBody=0;fillColor=none;collapsible=0;dropTarget=0;points=[[0,0.5],[1,0.5]];portConstraint=eastwest;top=0;left=0;right=0;bottom=0;" vertex="1" parent="YLxW0C4IHcAFHFS-hIZx-190">
          <mxGeometry y="120" width="240" height="30" as="geometry" />
        </mxCell>
        <mxCell id="YLxW0C4IHcAFHFS-hIZx-201" value="" style="shape=partialRectangle;connectable=0;fillColor=none;top=0;left=0;bottom=0;right=0;editable=1;overflow=hidden;whiteSpace=wrap;html=1;" vertex="1" parent="YLxW0C4IHcAFHFS-hIZx-200">
          <mxGeometry width="30" height="30" as="geometry">
            <mxRectangle width="30" height="30" as="alternateBounds" />
          </mxGeometry>
        </mxCell>
        <mxCell id="YLxW0C4IHcAFHFS-hIZx-202" value="Created" style="shape=partialRectangle;connectable=0;fillColor=none;top=0;left=0;bottom=0;right=0;align=left;spacingLeft=6;overflow=hidden;whiteSpace=wrap;html=1;" vertex="1" parent="YLxW0C4IHcAFHFS-hIZx-200">
          <mxGeometry x="30" width="210" height="30" as="geometry">
            <mxRectangle width="210" height="30" as="alternateBounds" />
          </mxGeometry>
        </mxCell>
        <mxCell id="YLxW0C4IHcAFHFS-hIZx-203" style="shape=tableRow;horizontal=0;startSize=0;swimlaneHead=0;swimlaneBody=0;fillColor=none;collapsible=0;dropTarget=0;points=[[0,0.5],[1,0.5]];portConstraint=eastwest;top=0;left=0;right=0;bottom=0;" vertex="1" parent="YLxW0C4IHcAFHFS-hIZx-190">
          <mxGeometry y="150" width="240" height="30" as="geometry" />
        </mxCell>
        <mxCell id="YLxW0C4IHcAFHFS-hIZx-204" style="shape=partialRectangle;connectable=0;fillColor=none;top=0;left=0;bottom=0;right=0;editable=1;overflow=hidden;whiteSpace=wrap;html=1;" vertex="1" parent="YLxW0C4IHcAFHFS-hIZx-203">
          <mxGeometry width="30" height="30" as="geometry">
            <mxRectangle width="30" height="30" as="alternateBounds" />
          </mxGeometry>
        </mxCell>
        <mxCell id="YLxW0C4IHcAFHFS-hIZx-205" value="Active" style="shape=partialRectangle;connectable=0;fillColor=none;top=0;left=0;bottom=0;right=0;align=left;spacingLeft=6;overflow=hidden;whiteSpace=wrap;html=1;" vertex="1" parent="YLxW0C4IHcAFHFS-hIZx-203">
          <mxGeometry x="30" width="210" height="30" as="geometry">
            <mxRectangle width="210" height="30" as="alternateBounds" />
          </mxGeometry>
        </mxCell>
        <mxCell id="YLxW0C4IHcAFHFS-hIZx-206" style="shape=tableRow;horizontal=0;startSize=0;swimlaneHead=0;swimlaneBody=0;fillColor=none;collapsible=0;dropTarget=0;points=[[0,0.5],[1,0.5]];portConstraint=eastwest;top=0;left=0;right=0;bottom=0;" vertex="1" parent="YLxW0C4IHcAFHFS-hIZx-190">
          <mxGeometry y="180" width="240" height="30" as="geometry" />
        </mxCell>
        <mxCell id="YLxW0C4IHcAFHFS-hIZx-207" style="shape=partialRectangle;connectable=0;fillColor=none;top=0;left=0;bottom=0;right=0;editable=1;overflow=hidden;whiteSpace=wrap;html=1;" vertex="1" parent="YLxW0C4IHcAFHFS-hIZx-206">
          <mxGeometry width="30" height="30" as="geometry">
            <mxRectangle width="30" height="30" as="alternateBounds" />
          </mxGeometry>
        </mxCell>
        <mxCell id="YLxW0C4IHcAFHFS-hIZx-208" style="shape=partialRectangle;connectable=0;fillColor=none;top=0;left=0;bottom=0;right=0;align=left;spacingLeft=6;overflow=hidden;whiteSpace=wrap;html=1;" vertex="1" parent="YLxW0C4IHcAFHFS-hIZx-206">
          <mxGeometry x="30" width="210" height="30" as="geometry">
            <mxRectangle width="210" height="30" as="alternateBounds" />
          </mxGeometry>
        </mxCell>
        <mxCell id="YLxW0C4IHcAFHFS-hIZx-225" value="Származtatott entitás" style="rounded=0;whiteSpace=wrap;html=1;fillColor=#76608a;strokeColor=#432D57;fontColor=#ffffff;" vertex="1" parent="1">
          <mxGeometry x="1695" y="577" width="120" height="23.6" as="geometry" />
        </mxCell>
        <mxCell id="YLxW0C4IHcAFHFS-hIZx-228" value="" style="edgeStyle=entityRelationEdgeStyle;fontSize=12;html=1;endArrow=ERmandOne;startArrow=ERmandOne;rounded=0;entryX=0;entryY=0.5;entryDx=0;entryDy=0;" edge="1" parent="1" source="YLxW0C4IHcAFHFS-hIZx-97" target="YLxW0C4IHcAFHFS-hIZx-165">
          <mxGeometry width="100" height="100" relative="1" as="geometry">
            <mxPoint x="1310" y="680" as="sourcePoint" />
            <mxPoint x="1410" y="580" as="targetPoint" />
          </mxGeometry>
        </mxCell>
        <mxCell id="YLxW0C4IHcAFHFS-hIZx-229" value="" style="edgeStyle=entityRelationEdgeStyle;fontSize=12;html=1;endArrow=ERmandOne;startArrow=ERmandOne;rounded=0;" edge="1" parent="1" source="YLxW0C4IHcAFHFS-hIZx-91" target="YLxW0C4IHcAFHFS-hIZx-152">
          <mxGeometry width="100" height="100" relative="1" as="geometry">
            <mxPoint x="1200" y="895" as="sourcePoint" />
            <mxPoint x="1390" y="685" as="targetPoint" />
          </mxGeometry>
        </mxCell>
        <mxCell id="YLxW0C4IHcAFHFS-hIZx-230" value="" style="edgeStyle=entityRelationEdgeStyle;fontSize=12;html=1;endArrow=ERmandOne;startArrow=ERmandOne;rounded=0;" edge="1" parent="1" source="YLxW0C4IHcAFHFS-hIZx-94" target="YLxW0C4IHcAFHFS-hIZx-178">
          <mxGeometry width="100" height="100" relative="1" as="geometry">
            <mxPoint x="1210" y="905" as="sourcePoint" />
            <mxPoint x="1400" y="695" as="targetPoint" />
          </mxGeometry>
        </mxCell>
        <mxCell id="YLxW0C4IHcAFHFS-hIZx-231" value="" style="edgeStyle=entityRelationEdgeStyle;fontSize=12;html=1;endArrow=ERmandOne;startArrow=ERmandOne;rounded=0;" edge="1" parent="1" source="YLxW0C4IHcAFHFS-hIZx-88" target="YLxW0C4IHcAFHFS-hIZx-61">
          <mxGeometry width="100" height="100" relative="1" as="geometry">
            <mxPoint x="1220" y="915" as="sourcePoint" />
            <mxPoint x="1410" y="705" as="targetPoint" />
          </mxGeometry>
        </mxCell>
        <mxCell id="YLxW0C4IHcAFHFS-hIZx-232" value="" style="edgeStyle=entityRelationEdgeStyle;fontSize=12;html=1;endArrow=ERmandOne;startArrow=ERmandOne;rounded=0;exitX=-0.012;exitY=0.8;exitDx=0;exitDy=0;exitPerimeter=0;" edge="1" parent="1" source="YLxW0C4IHcAFHFS-hIZx-85" target="YLxW0C4IHcAFHFS-hIZx-27">
          <mxGeometry width="100" height="100" relative="1" as="geometry">
            <mxPoint x="1230" y="925" as="sourcePoint" />
            <mxPoint x="1420" y="715" as="targetPoint" />
          </mxGeometry>
        </mxCell>
        <mxCell id="YLxW0C4IHcAFHFS-hIZx-234" value="" style="rounded=0;whiteSpace=wrap;html=1;" vertex="1" parent="1">
          <mxGeometry x="100" y="1180" width="900" height="650" as="geometry" />
        </mxCell>
        <mxCell id="YLxW0C4IHcAFHFS-hIZx-235" value="Services" style="text;html=1;strokeColor=none;fillColor=none;align=center;verticalAlign=middle;whiteSpace=wrap;rounded=0;" vertex="1" parent="1">
          <mxGeometry x="120" y="1200" width="60" height="30" as="geometry" />
        </mxCell>
        <mxCell id="YLxW0C4IHcAFHFS-hIZx-236" value="AuthService&lt;br&gt;JWT&amp;nbsp;" style="rounded=0;whiteSpace=wrap;html=1;" vertex="1" parent="1">
          <mxGeometry x="220" y="1230" width="120" height="60" as="geometry" />
        </mxCell>
        <mxCell id="YLxW0C4IHcAFHFS-hIZx-237" value="ProjectService" style="rounded=0;whiteSpace=wrap;html=1;" vertex="1" parent="1">
          <mxGeometry x="370" y="1230" width="120" height="60" as="geometry" />
        </mxCell>
        <mxCell id="YLxW0C4IHcAFHFS-hIZx-239" value="&lt;b&gt;DictionaryManagemnet&lt;br&gt;&lt;/b&gt;&lt;br&gt;CRUD operation&lt;br&gt;TicketPriorityOnly Admin user can &lt;b&gt;Modify &lt;/b&gt;the table" style="rounded=0;whiteSpace=wrap;html=1;" vertex="1" parent="1">
          <mxGeometry x="370" y="1320" width="180" height="90" as="geometry" />
        </mxCell>
        <mxCell id="YLxW0C4IHcAFHFS-hIZx-248" style="edgeStyle=orthogonalEdgeStyle;rounded=0;orthogonalLoop=1;jettySize=auto;html=1;exitX=0;exitY=0.5;exitDx=0;exitDy=0;entryX=1;entryY=0.891;entryDx=0;entryDy=0;entryPerimeter=0;" edge="1" parent="1" source="YLxW0C4IHcAFHFS-hIZx-242" target="YLxW0C4IHcAFHFS-hIZx-239">
          <mxGeometry relative="1" as="geometry" />
        </mxCell>
        <mxCell id="YLxW0C4IHcAFHFS-hIZx-242" value="TicketStatus" style="rounded=0;whiteSpace=wrap;html=1;" vertex="1" parent="1">
          <mxGeometry x="580" y="1390" width="120" height="20" as="geometry" />
        </mxCell>
        <mxCell id="YLxW0C4IHcAFHFS-hIZx-247" style="edgeStyle=orthogonalEdgeStyle;rounded=0;orthogonalLoop=1;jettySize=auto;html=1;exitX=0;exitY=0.5;exitDx=0;exitDy=0;" edge="1" parent="1" source="YLxW0C4IHcAFHFS-hIZx-243" target="YLxW0C4IHcAFHFS-hIZx-239">
          <mxGeometry relative="1" as="geometry" />
        </mxCell>
        <mxCell id="YLxW0C4IHcAFHFS-hIZx-243" value="TicketCategory" style="rounded=0;whiteSpace=wrap;html=1;" vertex="1" parent="1">
          <mxGeometry x="580" y="1355" width="120" height="20" as="geometry" />
        </mxCell>
        <mxCell id="YLxW0C4IHcAFHFS-hIZx-246" style="edgeStyle=orthogonalEdgeStyle;rounded=0;orthogonalLoop=1;jettySize=auto;html=1;exitX=0;exitY=0.5;exitDx=0;exitDy=0;entryX=0.997;entryY=0.118;entryDx=0;entryDy=0;entryPerimeter=0;" edge="1" parent="1" source="YLxW0C4IHcAFHFS-hIZx-244" target="YLxW0C4IHcAFHFS-hIZx-239">
          <mxGeometry relative="1" as="geometry" />
        </mxCell>
        <mxCell id="YLxW0C4IHcAFHFS-hIZx-244" value="TicketPriority" style="rounded=0;whiteSpace=wrap;html=1;" vertex="1" parent="1">
          <mxGeometry x="580" y="1320" width="120" height="20" as="geometry" />
        </mxCell>
        <mxCell id="YLxW0C4IHcAFHFS-hIZx-250" value="" style="rounded=0;whiteSpace=wrap;html=1;" vertex="1" parent="1">
          <mxGeometry x="1080" y="1185" width="930" height="645" as="geometry" />
        </mxCell>
        <mxCell id="YLxW0C4IHcAFHFS-hIZx-252" value="BaseDictionaryDTO" style="swimlane;childLayout=stackLayout;horizontal=1;startSize=50;horizontalStack=0;rounded=1;fontSize=14;fontStyle=0;strokeWidth=2;resizeParent=0;resizeLast=1;shadow=0;dashed=0;align=center;arcSize=4;whiteSpace=wrap;html=1;" vertex="1" parent="1">
          <mxGeometry x="1161" y="1210" width="179" height="120" as="geometry" />
        </mxCell>
        <mxCell id="YLxW0C4IHcAFHFS-hIZx-253" value="+ Id&lt;br&gt;+ Name: localized -&amp;gt; mapper" style="align=left;strokeColor=none;fillColor=none;spacingLeft=4;fontSize=12;verticalAlign=top;resizable=0;rotatable=0;part=1;html=1;" vertex="1" parent="YLxW0C4IHcAFHFS-hIZx-252">
          <mxGeometry y="50" width="179" height="70" as="geometry" />
        </mxCell>
        <mxCell id="YLxW0C4IHcAFHFS-hIZx-254" value="RecordInfoService" style="rounded=0;whiteSpace=wrap;html=1;" vertex="1" parent="1">
          <mxGeometry x="220" y="1480" width="120" height="60" as="geometry" />
        </mxCell>
      </root>
    </mxGraphModel>
  </diagram>
</mxfile>
